# xmcd
#
# Track frame offsets:
#	150
#	14991
#	29602
#	45652
#	59483
#	75083
#	89680
#	103037
#	119961
#	135711
#	147535
#	162383
#	173748
#	188240
#	200134
#	216702
#	229002
#	245779
#	259004
#	274904
#
# Disc length: 3799 seconds
#
# Revision: 0
# Processed by: cddbd v1.5.2PL0 Copyright (c) Steve Scherf et al.
# Submitted via: EasyCDDAExtractor 13.0.0.1
#
DISCID=440ed514
DTITLE=Zé Carreiro and Carreirinho - As 20 Mais
DYEAR=2005
DGENRE=Country
TTITLE0=Peito Sadio
TTITLE1=Canoeiro
TTITLE2=Despedida De Solteiro
TTITLE3=Sertanejo Solitário
TTITLE4=Último Adeus
TTITLE5=Duas Cartas
TTITLE6=Bouquet De Flores
TTITLE7=Ferreirinha
TTITLE8=A Morte Do Carreiro
TTITLE9=Pirangueiro
TTITLE10=Boi Soberano
TTITLE11=Bombardeio
TTITLE12=Saudade De Araraquara
TTITLE13=Sucuri
TTITLE14=As Tres Cuiabanas
TTITLE15=Noturno
TTITLE16=Cruel Destino
TTITLE17=Mulato Gordo
TTITLE18=Adeus Minha Mocidade
TTITLE19=Preto Fugido
EXTD=
EXTT0=
EXTT1=
EXTT2=
EXTT3=
EXTT4=
EXTT5=
EXTT6=
EXTT7=
EXTT8=
EXTT9=
EXTT10=
EXTT11=
EXTT12=
EXTT13=
EXTT14=
EXTT15=
EXTT16=
EXTT17=
EXTT18=
EXTT19=
PLAYORDER=
